<?xml version="1.0" encoding="UTF-8" standalone="no"?>
<!DOCTYPE svg PUBLIC "-//W3C//DTD SVG 1.1//EN"
 "http://www.w3.org/Graphics/SVG/1.1/DTD/svg11.dtd">
<!-- Generated by graphviz version 2.43.0 (0)
 -->
<!-- Title: ViT_Bottleneck_Adapter_Architecture Pages: 1 -->
<svg width="2114pt" height="574pt"
 viewBox="0.00 0.00 2114.01 574.00" xmlns="http://www.w3.org/2000/svg" xmlns:xlink="http://www.w3.org/1999/xlink">
<g id="graph0" class="graph" transform="scale(1 1) rotate(0) translate(4 570)">
<title>ViT_Bottleneck_Adapter_Architecture</title>
<polygon fill="white" stroke="transparent" points="-4,4 -4,-570 2110.01,-570 2110.01,4 -4,4"/>
<g id="clust1" class="cluster">
<title>cluster_backbone</title>
<path fill="#f8f9fa" stroke="#6c757d" stroke-dasharray="5,2" d="M69.4,-438C69.4,-438 2036.61,-438 2036.61,-438 2042.61,-438 2048.61,-444 2048.61,-450 2048.61,-450 2048.61,-546 2048.61,-546 2048.61,-552 2042.61,-558 2036.61,-558 2036.61,-558 69.4,-558 69.4,-558 63.4,-558 57.4,-552 57.4,-546 57.4,-546 57.4,-450 57.4,-450 57.4,-444 63.4,-438 69.4,-438"/>
<text text-anchor="middle" x="1053.01" y="-542.8" font-family="Helvetica,sans-Serif" font-weight="bold" font-size="14.00">Frozen ViT Backbone (Inference Base)</text>
</g>
<g id="clust2" class="cluster">
<title>cluster_bottleneck</title>
<path fill="none" stroke="#dee2e6" d="M913.4,-8C913.4,-8 1829.22,-8 1829.22,-8 1835.22,-8 1841.22,-14 1841.22,-20 1841.22,-20 1841.22,-138 1841.22,-138 1841.22,-144 1835.22,-150 1829.22,-150 1829.22,-150 913.4,-150 913.4,-150 907.4,-150 901.4,-144 901.4,-138 901.4,-138 901.4,-20 901.4,-20 901.4,-14 907.4,-8 913.4,-8"/>
<text text-anchor="middle" x="1371.31" y="-134.8" font-family="Helvetica,sans-Serif" font-size="14.00">TinyResidualAdapter Detail</text>
<text text-anchor="middle" x="1371.31" y="-119.8" font-family="Helvetica,sans-Serif" font-size="14.00">(Bottleneck Structure)</text>
</g>
<g id="clust3" class="cluster">
<title>cluster_adapter</title>
<path fill="#fffaf0" stroke="#fd7e14" stroke-dasharray="5,2" d="M500.4,-158C500.4,-158 1700.76,-158 1700.76,-158 1706.76,-158 1712.76,-164 1712.76,-170 1712.76,-170 1712.76,-418 1712.76,-418 1712.76,-424 1706.76,-430 1700.76,-430 1700.76,-430 500.4,-430 500.4,-430 494.4,-430 488.4,-424 488.4,-418 488.4,-418 488.4,-170 488.4,-170 488.4,-164 494.4,-158 500.4,-158"/>
<text text-anchor="middle" x="1100.58" y="-414.8" font-family="Helvetica,sans-Serif" font-weight="bold" font-size="14.00">Trainable SensorAdapterBlock</text>
</g>
<!-- in_node -->
<g id="node1" class="node">
<title>in_node</title>
<ellipse fill="black" stroke="black" cx="7.2" cy="-393" rx="7.2" ry="7.2"/>
</g>
<!-- norm1 -->
<g id="node3" class="node">
<title>norm1</title>
<path fill="#e9ecef" stroke="#ced4da" d="M157.4,-494C157.4,-494 77.4,-494 77.4,-494 71.4,-494 65.4,-488 65.4,-482 65.4,-482 65.4,-470 65.4,-470 65.4,-464 71.4,-458 77.4,-458 77.4,-458 157.4,-458 157.4,-458 163.4,-458 169.4,-464 169.4,-470 169.4,-470 169.4,-482 169.4,-482 169.4,-488 163.4,-494 157.4,-494"/>
<text text-anchor="middle" x="117.4" y="-472.3" font-family="Helvetica,sans-Serif" font-size="14.00">LayerNorm</text>
</g>
<!-- in_node&#45;&gt;norm1 -->
<g id="edge18" class="edge">
<title>in_node&#45;&gt;norm1</title>
<path fill="none" stroke="#495057" stroke-width="2" d="M12.75,-398.33C18.57,-404.97 29.12,-416.49 39.4,-425 42.59,-427.64 45.92,-430.27 49.33,-432.86"/>
<polygon fill="#495057" stroke="#495057" stroke-width="2" points="47.28,-435.69 57.4,-438.82 51.44,-430.06 47.28,-435.69"/>
</g>
<!-- add1 -->
<g id="node6" class="node">
<title>add1</title>
<ellipse fill="white" stroke="black" cx="620.4" cy="-476" rx="29.9" ry="29.9"/>
<text text-anchor="middle" x="620.4" y="-472.2" font-family="Helvetica,sans-Serif" font-size="16.00">+</text>
</g>
<!-- in_node&#45;&gt;add1 -->
<g id="edge19" class="edge">
<title>in_node&#45;&gt;add1</title>
<path fill="none" stroke="#495057" stroke-dasharray="5,2" d="M14.54,-393C31.22,-393 77.7,-393 116.4,-393 116.4,-393 116.4,-393 394.4,-393 441.11,-393 444.78,-423.29 488.4,-440 518.93,-451.7 554.8,-461.28 581.28,-467.61"/>
<polygon fill="#495057" stroke="#495057" points="580.76,-471.08 591.29,-469.96 582.35,-464.27 580.76,-471.08"/>
</g>
<!-- selector -->
<g id="node14" class="node">
<title>selector</title>
<polygon fill="lightgrey" stroke="transparent" points="744.4,-294 496.4,-294 496.4,-166 744.4,-166 744.4,-294"/>
<polygon fill="#e2e3e5" stroke="transparent" points="510.4,-258 510.4,-287 730.4,-287 730.4,-258 510.4,-258"/>
<polygon fill="none" stroke="black" points="510.4,-258 510.4,-287 730.4,-287 730.4,-258 510.4,-258"/>
<text text-anchor="start" x="573.9" y="-269.8" font-family="Helvetica,sans-Serif" font-weight="bold" font-size="14.00">Route Input</text>
<polygon fill="#cce5ff" stroke="transparent" points="510.4,-229 510.4,-258 730.4,-258 730.4,-229 510.4,-229"/>
<polygon fill="none" stroke="black" points="510.4,-229 510.4,-258 730.4,-258 730.4,-229 510.4,-229"/>
<text text-anchor="start" x="571.4" y="-239.8" font-family="Helvetica,sans-Serif" font-size="14.00">To 1 × Shared</text>
<polygon fill="#d4edda" stroke="transparent" points="510.4,-200 510.4,-229 730.4,-229 730.4,-200 510.4,-200"/>
<polygon fill="none" stroke="black" points="510.4,-200 510.4,-229 730.4,-229 730.4,-200 510.4,-200"/>
<text text-anchor="start" x="548.4" y="-210.8" font-family="Helvetica,sans-Serif" font-size="14.00">To 1 × Active Private</text>
<polygon fill="#ffffff" stroke="transparent" points="510.4,-173 510.4,-200 730.4,-200 730.4,-173 510.4,-173"/>
<text text-anchor="start" x="516.4" y="-182.8" font-family="Helvetica,sans-Serif" font-size="14.00">(From 4 total Private Streams)</text>
</g>
<!-- in_node&#45;&gt;selector -->
<g id="edge17" class="edge">
<title>in_node&#45;&gt;selector</title>
<path fill="none" stroke="#fd7e14" stroke-width="2" d="M10.27,-386.28C18.73,-360.32 53.26,-268 116.4,-268 116.4,-268 116.4,-268 394.4,-268 424.3,-268 456.12,-264.7 486.14,-260.04"/>
<polygon fill="#fd7e14" stroke="#fd7e14" stroke-width="2" points="479.7,-265.46 488.4,-259.41 477.83,-258.72 479.7,-265.46"/>
<text text-anchor="middle" x="255.4" y="-271.2" font-family="Helvetica,sans-Serif" font-size="11.00"> Bypass</text>
</g>
<!-- out_node -->
<g id="node2" class="node">
<title>out_node</title>
<ellipse fill="black" stroke="black" cx="2098.81" cy="-476" rx="7.2" ry="7.2"/>
</g>
<!-- mhsa -->
<g id="node4" class="node">
<title>mhsa</title>
<path fill="#e9ecef" stroke="#ced4da" d="M278.4,-494C278.4,-494 232.4,-494 232.4,-494 226.4,-494 220.4,-488 220.4,-482 220.4,-482 220.4,-470 220.4,-470 220.4,-464 226.4,-458 232.4,-458 232.4,-458 278.4,-458 278.4,-458 284.4,-458 290.4,-464 290.4,-470 290.4,-470 290.4,-482 290.4,-482 290.4,-488 284.4,-494 278.4,-494"/>
<text text-anchor="middle" x="255.4" y="-472.3" font-family="Helvetica,sans-Serif" font-size="14.00">MHSA</text>
</g>
<!-- norm1&#45;&gt;mhsa -->
<g id="edge1" class="edge">
<title>norm1&#45;&gt;mhsa</title>
<path fill="none" stroke="#495057" d="M169.43,-476C182.75,-476 197,-476 209.95,-476"/>
<polygon fill="#495057" stroke="#495057" points="210.02,-479.5 220.02,-476 210.02,-472.5 210.02,-479.5"/>
</g>
<!-- ls1 -->
<g id="node5" class="node">
<title>ls1</title>
<path fill="#e9ecef" stroke="#ced4da" d="M433.4,-494C433.4,-494 353.4,-494 353.4,-494 347.4,-494 341.4,-488 341.4,-482 341.4,-482 341.4,-470 341.4,-470 341.4,-464 347.4,-458 353.4,-458 353.4,-458 433.4,-458 433.4,-458 439.4,-458 445.4,-464 445.4,-470 445.4,-470 445.4,-482 445.4,-482 445.4,-488 439.4,-494 433.4,-494"/>
<text text-anchor="middle" x="393.4" y="-472.3" font-family="Helvetica,sans-Serif" font-size="14.00">LayerScale</text>
</g>
<!-- mhsa&#45;&gt;ls1 -->
<g id="edge2" class="edge">
<title>mhsa&#45;&gt;ls1</title>
<path fill="none" stroke="#495057" d="M290.72,-476C303.07,-476 317.4,-476 331.33,-476"/>
<polygon fill="#495057" stroke="#495057" points="331.38,-479.5 341.38,-476 331.38,-472.5 331.38,-479.5"/>
</g>
<!-- ls1&#45;&gt;add1 -->
<g id="edge3" class="edge">
<title>ls1&#45;&gt;add1</title>
<path fill="none" stroke="#495057" d="M445.46,-476C486.29,-476 542.69,-476 580.07,-476"/>
<polygon fill="#495057" stroke="#495057" points="580.55,-479.5 590.55,-476 580.55,-472.5 580.55,-479.5"/>
</g>
<!-- norm2 -->
<g id="node7" class="node">
<title>norm2</title>
<path fill="#e9ecef" stroke="#ced4da" d="M1117.35,-482C1117.35,-482 1037.35,-482 1037.35,-482 1031.35,-482 1025.35,-476 1025.35,-470 1025.35,-470 1025.35,-458 1025.35,-458 1025.35,-452 1031.35,-446 1037.35,-446 1037.35,-446 1117.35,-446 1117.35,-446 1123.35,-446 1129.35,-452 1129.35,-458 1129.35,-458 1129.35,-470 1129.35,-470 1129.35,-476 1123.35,-482 1117.35,-482"/>
<text text-anchor="middle" x="1077.35" y="-460.3" font-family="Helvetica,sans-Serif" font-size="14.00">LayerNorm</text>
</g>
<!-- add1&#45;&gt;norm2 -->
<g id="edge4" class="edge">
<title>add1&#45;&gt;norm2</title>
<path fill="none" stroke="#495057" d="M650.2,-475.24C723.02,-473.32 915.74,-468.24 1015.14,-465.61"/>
<polygon fill="#495057" stroke="#495057" points="1015.43,-469.11 1025.33,-465.35 1015.24,-462.11 1015.43,-469.11"/>
</g>
<!-- add2 -->
<g id="node10" class="node">
<title>add2</title>
<ellipse fill="white" stroke="black" cx="2010.91" cy="-476" rx="29.9" ry="29.9"/>
<text text-anchor="middle" x="2010.91" y="-472.2" font-family="Helvetica,sans-Serif" font-size="16.00">+</text>
</g>
<!-- add1&#45;&gt;add2 -->
<g id="edge20" class="edge">
<title>add1&#45;&gt;add2</title>
<path fill="none" stroke="#495057" stroke-dasharray="5,2" d="M649.76,-481.3C721.13,-494.17 914.06,-526 1076.35,-526 1076.35,-526 1076.35,-526 1666.26,-526 1778.2,-526 1908.53,-499.7 1971.69,-485.25"/>
<polygon fill="#495057" stroke="#495057" points="1972.65,-488.62 1981.6,-482.95 1971.07,-481.8 1972.65,-488.62"/>
</g>
<!-- mlp -->
<g id="node8" class="node">
<title>mlp</title>
<path fill="#e9ecef" stroke="#ced4da" d="M1354.31,-482C1354.31,-482 1322.31,-482 1322.31,-482 1316.31,-482 1310.31,-476 1310.31,-470 1310.31,-470 1310.31,-458 1310.31,-458 1310.31,-452 1316.31,-446 1322.31,-446 1322.31,-446 1354.31,-446 1354.31,-446 1360.31,-446 1366.31,-452 1366.31,-458 1366.31,-458 1366.31,-470 1366.31,-470 1366.31,-476 1360.31,-482 1354.31,-482"/>
<text text-anchor="middle" x="1338.31" y="-460.3" font-family="Helvetica,sans-Serif" font-size="14.00">MLP</text>
</g>
<!-- norm2&#45;&gt;mlp -->
<g id="edge5" class="edge">
<title>norm2&#45;&gt;mlp</title>
<path fill="none" stroke="#495057" d="M1129.51,-464C1179.73,-464 1255.12,-464 1299.95,-464"/>
<polygon fill="#495057" stroke="#495057" points="1300.12,-467.5 1310.12,-464 1300.12,-460.5 1300.12,-467.5"/>
</g>
<!-- ls2 -->
<g id="node9" class="node">
<title>ls2</title>
<path fill="#e9ecef" stroke="#ced4da" d="M1705.26,-482C1705.26,-482 1625.26,-482 1625.26,-482 1619.26,-482 1613.26,-476 1613.26,-470 1613.26,-470 1613.26,-458 1613.26,-458 1613.26,-452 1619.26,-446 1625.26,-446 1625.26,-446 1705.26,-446 1705.26,-446 1711.26,-446 1717.26,-452 1717.26,-458 1717.26,-458 1717.26,-470 1717.26,-470 1717.26,-476 1711.26,-482 1705.26,-482"/>
<text text-anchor="middle" x="1665.26" y="-460.3" font-family="Helvetica,sans-Serif" font-size="14.00">LayerScale</text>
</g>
<!-- mlp&#45;&gt;ls2 -->
<g id="edge6" class="edge">
<title>mlp&#45;&gt;ls2</title>
<path fill="none" stroke="#495057" d="M1366.45,-464C1418.14,-464 1531.84,-464 1602.85,-464"/>
<polygon fill="#495057" stroke="#495057" points="1603,-467.5 1613,-464 1603,-460.5 1603,-467.5"/>
</g>
<!-- ls2&#45;&gt;add2 -->
<g id="edge7" class="edge">
<title>ls2&#45;&gt;add2</title>
<path fill="none" stroke="#495057" d="M1717.34,-465.78C1786.45,-468.2 1908.25,-472.45 1970.65,-474.63"/>
<polygon fill="#495057" stroke="#495057" points="1970.75,-478.13 1980.87,-474.99 1970.99,-471.14 1970.75,-478.13"/>
</g>
<!-- add2&#45;&gt;out_node -->
<g id="edge22" class="edge">
<title>add2&#45;&gt;out_node</title>
<path fill="none" stroke="#495057" stroke-width="2" d="M2041,-476C2054.43,-476 2069.9,-476 2081.3,-476"/>
<polygon fill="#495057" stroke="#495057" stroke-width="2" points="2081.45,-479.5 2091.45,-476 2081.45,-472.5 2081.45,-479.5"/>
</g>
<!-- in_proj -->
<g id="node11" class="node">
<title>in_proj</title>
<path fill="white" stroke="black" d="M1233.26,-104C1233.26,-104 990.16,-104 990.16,-104 984.16,-104 974.47,-99.27 970.77,-94.54 970.77,-94.54 916.83,-25.46 916.83,-25.46 913.14,-20.73 915.45,-16 921.45,-16 921.45,-16 1164.55,-16 1164.55,-16 1170.55,-16 1180.24,-20.73 1183.94,-25.46 1183.94,-25.46 1237.88,-94.54 1237.88,-94.54 1241.57,-99.27 1239.26,-104 1233.26,-104"/>
<text text-anchor="middle" x="1077.35" y="-63.8" font-family="Helvetica,sans-Serif" font-size="14.00">Linear (Down)</text>
<text text-anchor="middle" x="1077.35" y="-48.8" font-family="Helvetica,sans-Serif" font-size="14.00">embed_dim → rank</text>
</g>
<!-- act -->
<g id="node12" class="node">
<title>act</title>
<path fill="#f1f3f5" stroke="black" stroke-width="0.5" d="M1368.31,-89.5C1368.31,-89.5 1308.31,-89.5 1308.31,-89.5 1302.31,-89.5 1296.31,-83.5 1296.31,-77.5 1296.31,-77.5 1296.31,-42.5 1296.31,-42.5 1296.31,-36.5 1302.31,-30.5 1308.31,-30.5 1308.31,-30.5 1368.31,-30.5 1368.31,-30.5 1374.31,-30.5 1380.31,-36.5 1380.31,-42.5 1380.31,-42.5 1380.31,-77.5 1380.31,-77.5 1380.31,-83.5 1374.31,-89.5 1368.31,-89.5"/>
<text text-anchor="middle" x="1338.31" y="-71.3" font-family="Helvetica,sans-Serif" font-size="14.00">GELU</text>
<text text-anchor="middle" x="1338.31" y="-56.3" font-family="Helvetica,sans-Serif" font-size="14.00">+</text>
<text text-anchor="middle" x="1338.31" y="-41.3" font-family="Helvetica,sans-Serif" font-size="14.00">Dropout</text>
</g>
<!-- in_proj&#45;&gt;act -->
<g id="edge8" class="edge">
<title>in_proj&#45;&gt;act</title>
<path fill="none" stroke="#495057" stroke-width="1.5" d="M1211.24,-60C1237.82,-60 1264.2,-60 1285.91,-60"/>
<polygon fill="#495057" stroke="#495057" stroke-width="1.5" points="1286.17,-63.5 1296.17,-60 1286.17,-56.5 1286.17,-63.5"/>
</g>
<!-- out_proj -->
<g id="node13" class="node">
<title>out_proj</title>
<path fill="white" stroke="black" d="M1821.17,-104C1821.17,-104 1578.07,-104 1578.07,-104 1572.07,-104 1562.37,-99.27 1558.68,-94.54 1558.68,-94.54 1504.74,-25.46 1504.74,-25.46 1501.05,-20.73 1503.35,-16 1509.35,-16 1509.35,-16 1752.46,-16 1752.46,-16 1758.46,-16 1768.15,-20.73 1771.84,-25.46 1771.84,-25.46 1825.78,-94.54 1825.78,-94.54 1829.48,-99.27 1827.17,-104 1821.17,-104"/>
<text text-anchor="middle" x="1665.26" y="-63.8" font-family="Helvetica,sans-Serif" font-size="14.00">Linear (Up)</text>
<text text-anchor="middle" x="1665.26" y="-48.8" font-family="Helvetica,sans-Serif" font-size="14.00">rank → embed_dim</text>
</g>
<!-- act&#45;&gt;out_proj -->
<g id="edge9" class="edge">
<title>act&#45;&gt;out_proj</title>
<path fill="none" stroke="#495057" stroke-width="1.5" d="M1380.46,-60C1416.17,-60 1470.03,-60 1521.27,-60"/>
<polygon fill="#495057" stroke="#495057" stroke-width="1.5" points="1521.48,-63.5 1531.48,-60 1521.48,-56.5 1521.48,-63.5"/>
</g>
<!-- mul_gate -->
<g id="node16" class="node">
<title>mul_gate</title>
<ellipse fill="#ffeeba" stroke="#ffc107" cx="1077.35" cy="-289" rx="29.9" ry="29.9"/>
<text text-anchor="middle" x="1077.35" y="-285.2" font-family="Helvetica,sans-Serif" font-size="16.00">×</text>
</g>
<!-- out_proj&#45;&gt;mul_gate -->
<g id="edge12" class="edge">
<title>out_proj&#45;&gt;mul_gate</title>
<path fill="none" stroke="#28a745" d="M1562.55,-99.75C1429.56,-151.73 1203.15,-240.22 1115,-274.68"/>
<polygon fill="#28a745" stroke="#28a745" points="1113.48,-271.51 1105.44,-278.41 1116.03,-278.03 1113.48,-271.51"/>
<text text-anchor="middle" x="1338.31" y="-206.2" font-family="Helvetica,sans-Serif" font-size="11.00"> Private Out</text>
</g>
<!-- add_fusion -->
<g id="node17" class="node">
<title>add_fusion</title>
<ellipse fill="#ffeeba" stroke="#ffc107" cx="1338.31" cy="-289" rx="29.9" ry="29.9"/>
<text text-anchor="middle" x="1338.31" y="-285.2" font-family="Helvetica,sans-Serif" font-size="16.00">+</text>
</g>
<!-- out_proj&#45;&gt;add_fusion -->
<g id="edge14" class="edge">
<title>out_proj&#45;&gt;add_fusion</title>
<path fill="none" stroke="#0056b3" d="M1560.83,-98.08C1537.24,-110.87 1514.19,-127.31 1497.31,-148 1472.15,-178.84 1498.88,-204.36 1472.31,-234 1447.84,-261.3 1407.74,-275.37 1377.96,-282.41"/>
<polygon fill="#0056b3" stroke="#0056b3" points="1376.91,-279.06 1367.9,-284.62 1378.41,-285.89 1376.91,-279.06"/>
<text text-anchor="middle" x="1438.81" y="-277.2" font-family="Helvetica,sans-Serif" font-size="11.00"> Shared Out</text>
</g>
<!-- selector&#45;&gt;in_proj -->
<g id="edge10" class="edge">
<title>selector:shared_out&#45;&gt;in_proj</title>
<path fill="none" stroke="#0056b3" d="M731.4,-244C818.17,-244 824.84,-188.84 901.4,-148 925.85,-134.96 952.46,-121.3 977.38,-108.75"/>
<polygon fill="#0056b3" stroke="#0056b3" points="979.11,-111.79 986.48,-104.17 975.97,-105.54 979.11,-111.79"/>
<text text-anchor="middle" x="826.9" y="-243.2" font-family="Helvetica,sans-Serif" font-size="11.00"> Shared Path</text>
</g>
<!-- selector&#45;&gt;in_proj -->
<g id="edge11" class="edge">
<title>selector:private_out&#45;&gt;in_proj</title>
<path fill="none" stroke="#28a745" stroke-width="2" d="M731.4,-214C769.56,-214 739.7,-160.97 769.4,-137 817.19,-98.43 881.77,-78.86 939.37,-69.05"/>
<polygon fill="#28a745" stroke="#28a745" stroke-width="2" points="939.98,-72.5 949.29,-67.45 938.86,-65.59 939.98,-72.5"/>
<text text-anchor="middle" x="826.9" y="-140.2" font-family="Helvetica,sans-Serif" font-size="11.00"> Private Path</text>
</g>
<!-- gate_scalar -->
<g id="node15" class="node">
<title>gate_scalar</title>
<ellipse fill="#e2e3e5" stroke="black" cx="620.4" cy="-368" rx="113.69" ry="31.23"/>
<text text-anchor="middle" x="620.4" y="-371.8" font-family="Helvetica,sans-Serif" font-size="14.00">Private Gate Scalar</text>
<text text-anchor="middle" x="620.4" y="-356.8" font-family="Helvetica,sans-Serif" font-size="14.00">(Sigmoid 0~1)</text>
</g>
<!-- gate_scalar&#45;&gt;mul_gate -->
<g id="edge13" class="edge">
<title>gate_scalar&#45;&gt;mul_gate</title>
<path fill="none" stroke="#495057" stroke-dasharray="5,2" d="M717.05,-351.39C816.46,-334.13 967.16,-307.96 1037.56,-295.74"/>
<polygon fill="#495057" stroke="#495057" points="1038.5,-299.13 1047.75,-293.97 1037.3,-292.23 1038.5,-299.13"/>
<text text-anchor="middle" x="826.9" y="-343.2" font-family="Helvetica,sans-Serif" font-size="11.00"> private_gate Weight</text>
</g>
<!-- mul_gate&#45;&gt;add_fusion -->
<g id="edge15" class="edge">
<title>mul_gate&#45;&gt;add_fusion</title>
<path fill="none" stroke="#28a745" d="M1107.06,-289C1153.62,-289 1245.71,-289 1298.22,-289"/>
<polygon fill="#28a745" stroke="#28a745" points="1298.48,-292.5 1308.48,-289 1298.48,-285.5 1298.48,-292.5"/>
</g>
<!-- scale -->
<g id="node18" class="node">
<title>scale</title>
<polygon fill="#ffeeba" stroke="#ffc107" points="1704.76,-380 1625.76,-380 1625.76,-344 1704.76,-344 1704.76,-380"/>
<text text-anchor="middle" x="1665.26" y="-358.3" font-family="Helvetica,sans-Serif" font-size="14.00">Scaling</text>
</g>
<!-- add_fusion&#45;&gt;scale -->
<g id="edge16" class="edge">
<title>add_fusion&#45;&gt;scale</title>
<path fill="none" stroke="#fd7e14" stroke-width="1.5" d="M1367.58,-295.35C1423.02,-307.81 1546.62,-335.57 1615.5,-351.05"/>
<polygon fill="#fd7e14" stroke="#fd7e14" stroke-width="1.5" points="1615.14,-354.55 1625.66,-353.33 1616.68,-347.72 1615.14,-354.55"/>
</g>
<!-- scale&#45;&gt;add2 -->
<g id="edge21" class="edge">
<title>scale&#45;&gt;add2</title>
<path fill="none" stroke="#fd7e14" stroke-width="2" d="M1705.06,-370.98C1761.45,-384.59 1868.85,-412.65 1956.22,-448 1962.63,-450.6 1969.3,-453.71 1975.67,-456.9"/>
<polygon fill="#fd7e14" stroke="#fd7e14" stroke-width="2" points="1974.22,-460.1 1984.71,-461.58 1977.44,-453.88 1974.22,-460.1"/>
<text text-anchor="middle" x="1907.22" y="-451.2" font-family="Helvetica,sans-Serif" font-size="11.00"> Adapter Residual</text>
</g>
</g>
</svg>
